<?xml version="1.0" encoding="UTF-8" standalone="no"?>
<svg
   xmlns:dc="http://purl.org/dc/elements/1.1/"
   xmlns:cc="http://creativecommons.org/ns#"
   xmlns:rdf="http://www.w3.org/1999/02/22-rdf-syntax-ns#"
   xmlns:svg="http://www.w3.org/2000/svg"
   xmlns="http://www.w3.org/2000/svg"
   xmlns:sodipodi="http://sodipodi.sourceforge.net/DTD/sodipodi-0.dtd"
   xmlns:inkscape="http://www.inkscape.org/namespaces/inkscape"
   version="1.1"
   id="svg10"
   xml:space="preserve"
   width="1999.6"
   height="852.23865"
   viewBox="0 0 1999.6 852.23865"
   sodipodi:docname="logo.svg"
   inkscape:version="1.0.1 (c497b03c, 2020-09-10)"><metadata
     id="metadata16"><rdf:RDF><cc:Work
         rdf:about=""><dc:format>image/svg+xml</dc:format><dc:type
           rdf:resource="http://purl.org/dc/dcmitype/StillImage" /><dc:title></dc:title></cc:Work></rdf:RDF></metadata><defs
     id="defs14"><clipPath
       clipPathUnits="userSpaceOnUse"
       id="clipPath26"><path
         d="M 0,639.179 H 1499.7 V 0 H 0 Z"
         id="path24" /></clipPath></defs><sodipodi:namedview
     pagecolor="#ffffff"
     bordercolor="#666666"
     borderopacity="1"
     objecttolerance="10"
     gridtolerance="10"
     guidetolerance="10"
     inkscape:pageopacity="0"
     inkscape:pageshadow="2"
     inkscape:window-width="1920"
     inkscape:window-height="1035"
     id="namedview12"
     showgrid="false"
     inkscape:zoom="0.52660533"
     inkscape:cx="999.79999"
     inkscape:cy="426.11932"
     inkscape:window-x="0"
     inkscape:window-y="23"
     inkscape:window-maximized="1"
     inkscape:current-layer="g18" /><g
     id="g18"
     inkscape:groupmode="layer"
     inkscape:label="RITA (1)"
     transform="matrix(1.3333333,0,0,-1.3333333,0,852.23867)"><g
       id="g20"><g
         id="g22"
         clip-path="url(#clipPath26)"><g
           id="g28"
           transform="translate(500.27,84.6394)"><path
             d="m 0,0 c -0.124,-0.266 -0.263,-0.525 -0.417,-0.779 -1.293,-2.12 -3.512,-3.477 -5.681,-4.688 -29.374,-16.402 -63.938,-20.553 -97.556,-21.845 -73.075,-2.812 -148.125,4.998 -219.637,19.461 10.741,2.193 18.494,10.606 25.434,18.516 30.312,34.55 60.787,69.321 84.69,108.579 23.903,39.258 41.125,83.63 42.376,129.575 0.236,8.654 -0.423,18.166 -6.352,24.475 -4.049,4.309 -9.912,6.368 -15.635,7.852 -36.724,9.525 -77.778,0.45 -107.066,-23.667 20.202,26.857 51.125,45.409 84.33,50.593 19.978,3.118 40.456,1.576 60.451,4.591 19.994,3.014 40.713,11.845 50.57,29.5 5.877,10.526 7.216,23.045 6.492,35.078 -1.925,31.981 -17.25,61.408 -32.25,89.719 11.006,-2.134 19.974,-10.094 27.108,-18.742 30.634,-37.137 35.518,-93.457 11.735,-135.313 -2.773,-4.88 -5.941,-9.693 -7.088,-15.187 -1.292,-6.193 0.119,-12.594 1.524,-18.762 4.553,-19.973 9.151,-40.087 17.401,-58.837 8.8,-20.001 21.543,-37.97 32.385,-56.941 C -20.278,116.1 -5.184,62.808 0.68,8.9 1.006,5.905 1.257,2.685 0,0"
             style="fill:#f96167;fill-opacity:1;fill-rule:nonzero;stroke:none"
             id="path30" /></g><g
           id="g32"
           transform="translate(308.1099,426.7683)"><path
             d="M 0,0 C -0.208,0.395 -0.416,0.81 -0.602,1.204 2.99,4.859 6.604,8.514 10.736,12.729 13.062,11.234 15.097,9.926 18.524,7.725 11.463,4.776 5.731,2.388 0,0 m -20.497,-1.454 c 3.095,7.954 5.919,15.243 9.055,23.342 C -6.188,20.039 -0.976,18.212 5.129,16.073 -1.828,6.956 -9.511,1.059 -20.497,-1.454 m -10.445,0.332 c -0.976,8.598 -1.952,17.195 -3.011,26.602 5.814,-0.831 10.653,-1.537 16.613,-2.409 -3.53,-8.493 -6.874,-16.613 -10.238,-24.732 -1.121,0.166 -2.242,0.352 -3.364,0.539 m -6.666,61.448 c -8.161,0.478 -16.634,0.997 -25.896,1.537 1.288,8.825 2.471,17.049 3.697,25.564 8.639,-1.973 16.779,-3.822 25.272,-5.753 -1.017,-7.039 -1.993,-13.788 -3.073,-21.348 M -56.734,25.044 c 5.649,0.332 11.131,0.643 16.738,0.977 0.789,-8.473 1.495,-16.157 2.201,-23.82 -8.058,2.326 -15.803,11.484 -18.939,22.843 m -7.206,30.651 c 8.951,-0.602 17.049,-1.141 25.792,-1.723 -0.436,-7.455 -0.852,-14.453 -1.267,-21.514 -6.915,-0.499 -13.311,-0.955 -20.704,-1.495 -1.246,8.057 -2.471,16.031 -3.821,24.732 m 6.853,-47.388 c -4.776,3.841 -9.553,7.683 -15.596,12.543 3.863,1.141 6.293,1.889 8.847,2.658 2.679,-4.881 5.15,-9.449 7.642,-13.997 -0.291,-0.395 -0.581,-0.789 -0.893,-1.204 m -20.122,17.734 c -3.988,8.784 -7.975,17.589 -12.585,27.744 7.538,0.747 13.415,1.329 19.583,1.931 1.433,-8.908 2.782,-17.319 4.236,-26.29 -3.385,-1.018 -6.562,-1.973 -11.234,-3.385 m -6.874,70.481 c 6.229,-2.554 12.023,-4.921 17.983,-7.372 -1.329,-9.054 -2.616,-17.962 -3.945,-27.121 -6.313,-0.665 -12.543,-1.308 -19.271,-2.014 -2.077,12.688 -0.229,24.816 5.233,36.507 m 20.849,27.039 c 1.973,1.246 6.999,-2.306 10.57,-3.635 -4.194,-8.784 -7.891,-16.447 -11.795,-24.587 -5.503,2.159 -10.923,4.277 -16.925,6.624 4.382,9.138 10.238,16.551 18.15,21.598 m 24.609,13.56 c 0.29,-0.416 0.56,-0.851 0.851,-1.267 -3.676,-3.738 -7.351,-7.456 -11.442,-11.587 -2.118,1.39 -4.258,2.802 -7.58,5.004 6.894,2.991 12.543,5.42 18.171,7.85 m 20.766,1.37 c -3.24,-8.244 -6.043,-15.408 -9.158,-23.342 -5.212,1.87 -10.404,3.739 -16.281,5.857 6.645,9.013 14.267,14.931 25.439,17.485 m 9.428,-0.269 c 3.738,-8.349 2.7,-17.424 3.593,-26.789 -5.524,0.809 -10.238,1.495 -16.219,2.346 3.53,8.618 6.873,16.697 10.217,24.795 0.81,-0.103 1.599,-0.228 2.409,-0.352 M -0.81,76.794 c 8.473,-0.54 16.779,-1.08 25.75,-1.661 -1.225,-8.535 -2.429,-16.842 -3.675,-25.439 -8.577,1.931 -16.696,3.759 -25.19,5.669 1.038,7.04 2.014,13.789 3.115,21.431 m 19.853,35.303 c -6.355,-0.436 -11.733,-0.81 -17.465,-1.204 -0.747,8.327 -1.432,16.156 -2.222,24.919 9.989,-5.108 15.243,-13.208 19.687,-23.715 m 6.479,-30.818 c -9.054,0.645 -17.132,1.226 -25.751,1.849 0.416,7.455 0.79,14.267 1.185,21.431 6.645,0.499 13.02,0.997 20.787,1.578 1.246,-8.223 2.45,-16.177 3.779,-24.858 m -6.625,47.452 c 4.714,-3.904 9.408,-7.788 15.16,-12.543 -3.759,-1.163 -6.064,-1.848 -8.722,-2.658 -2.596,4.88 -5.108,9.574 -7.621,14.267 z M 43.34,101.859 C 46.143,96.106 48.137,89.96 50.836,83.148 43.734,82.463 37.94,81.902 31.814,81.321 c -1.412,8.764 -2.762,17.154 -4.132,25.667 9.345,4.922 10.964,4.59 15.658,-5.129 m 1.993,-61.24 c -5.752,2.367 -11.525,4.755 -17.547,7.247 1.287,8.909 2.575,17.797 3.945,27.204 6.396,0.644 12.46,1.246 18.545,1.849 3.219,-9.055 0.955,-26.083 -4.943,-36.3 M -5.254,49.175 C 3.157,47.326 11.048,45.603 20.019,43.63 16.364,35.739 12.979,28.471 9.49,20.933 c -6.749,2.492 -12.75,4.713 -19.416,7.184 1.453,6.522 2.928,13.188 4.672,21.058 m -21.763,37.981 c 1.558,6.812 3.011,13.125 4.569,19.915 5.648,-0.83 11.151,-1.619 17.236,-2.512 -0.395,-6.583 -0.789,-13.207 -1.225,-20.372 -6.854,0.997 -13.208,1.911 -20.58,2.969 m -3.489,-27.307 c 0.955,6.479 1.911,13.208 2.949,20.289 6.354,-0.914 12.73,-1.828 19.915,-2.867 -0.997,-6.811 -1.952,-13.393 -2.949,-20.309 -6.562,0.956 -12.937,1.869 -19.915,2.887 M -58.479,93.47 c 3.759,7.995 7.207,15.284 10.695,22.697 6.999,-2.637 13.166,-4.963 19.459,-7.33 -1.62,-6.957 -3.136,-13.457 -4.86,-20.912 -8.286,1.827 -16.343,3.593 -25.294,5.545 M -31.98,53.037 c 7.04,-0.996 13.353,-1.931 20.621,-2.97 -1.537,-6.769 -3.011,-13.186 -4.61,-20.267 -5.919,0.872 -11.235,1.64 -17.237,2.513 0.395,6.832 0.81,13.581 1.226,20.724 M 43.09,23.029 c 7.04,9.45 11.879,20.56 13.665,32.708 6.375,43.547 -22.158,82.796 -64.729,89.005 -41.845,6.084 -81.239,-23.051 -87.448,-64.687 -6.271,-42.053 23.051,-81.613 65.02,-87.718 15.595,-2.284 30.963,0.415 44.378,6.811 l -0.021,-0.02 3.094,-1.6 42.011,-6.084 z"
             style="fill:#fbe67d;fill-opacity:1;fill-rule:nonzero;stroke:none"
             id="path34" /></g><g
           id="g36"
           transform="translate(324.7583,427.0085)"><path
             d="m 0,0 c -13.758,-7.264 -29.867,-10.396 -46.446,-7.997 -41.658,6.027 -70.541,44.685 -64.513,86.343 6.027,41.657 44.685,70.542 86.342,64.513 C 17.048,136.83 45.932,98.173 39.904,56.516 38.086,43.956 33.305,32.56 26.368,22.937 L 37.704,-5.456 Z m 35.721,17.216 c 7.942,11.016 13.416,24.062 15.496,38.44 6.901,47.689 -26.165,91.944 -73.862,98.845 -47.688,6.9 -91.942,-26.165 -98.843,-73.855 -6.901,-47.688 26.165,-91.942 73.854,-98.842 18.979,-2.747 37.421,0.839 53.17,9.154 l 43.163,-6.245 z"
             style="fill:#f96167;fill-opacity:1;fill-rule:nonzero;stroke:none"
             id="path38" /></g><g
           id="g40"
           transform="translate(241.9102,515.2996)"><path
             d="m 0,0 c -1.312,-9.063 -2.601,-17.976 -3.925,-27.127 -6.322,-0.66 -12.56,-1.312 -19.287,-2.017 -2.081,12.685 -0.219,24.812 5.246,36.502 C -11.748,4.812 -5.95,2.437 0,0"
             style="fill:#f96167;fill-opacity:1;fill-rule:nonzero;stroke:none"
             id="path42" /></g><g
           id="g44"
           transform="translate(339.7422,501.2146)"><path
             d="m 0,0 c 6.402,0.637 12.46,1.238 18.555,1.845 3.226,-9.046 0.964,-26.086 -4.948,-36.302 -5.753,2.378 -11.525,4.765 -17.544,7.252 C -2.646,-18.283 -1.36,-9.4 0,0"
             style="fill:#f96167;fill-opacity:1;fill-rule:nonzero;stroke:none"
             id="path46" /></g><g
           id="g48"
           transform="translate(244.52,488.0144)"><path
             d="M 0,0 C 1.276,8.819 2.465,17.034 3.699,25.561 12.335,23.594 20.469,21.742 28.975,19.805 27.957,12.767 26.979,6.01 25.885,-1.553 17.72,-1.062 9.257,-0.556 0,0"
             style="fill:#f96167;fill-opacity:1;fill-rule:nonzero;stroke:none"
             id="path50" /></g><g
           id="g52"
           transform="translate(307.2075,502.947)"><path
             d="M 0,0 C 8.465,-0.552 16.775,-1.093 25.763,-1.679 24.53,-10.197 23.326,-18.52 22.083,-27.112 13.507,-25.181 5.379,-23.35 -3.102,-21.439 -2.083,-14.396 -1.106,-7.643 0,0"
             style="fill:#f96167;fill-opacity:1;fill-rule:nonzero;stroke:none"
             id="path54" /></g><g
           id="g56"
           transform="translate(279.686,534.9734)"><path
             d="m 0,0 c -1.617,-6.954 -3.128,-13.452 -4.859,-20.895 -8.269,1.811 -16.332,3.577 -25.29,5.538 3.768,7.986 7.212,15.286 10.707,22.691 C -12.445,4.694 -6.29,2.372 0,0"
             style="fill:#f96167;fill-opacity:1;fill-rule:nonzero;stroke:none"
             id="path58" /></g><g
           id="g60"
           transform="translate(244.0845,481.8376)"><path
             d="M 0,0 C 8.952,-0.594 17.054,-1.132 25.781,-1.71 25.342,-9.185 24.932,-16.169 24.517,-23.239 17.601,-23.735 11.217,-24.193 3.813,-24.724 2.571,-16.67 1.341,-8.692 0,0"
             style="fill:#f96167;fill-opacity:1;fill-rule:nonzero;stroke:none"
             id="path62" /></g><g
           id="g64"
           transform="translate(329.7603,532.283)"><path
             d="m 0,0 c 1.249,-8.226 2.457,-16.183 3.775,-24.863 -9.053,0.648 -17.129,1.227 -25.74,1.844 0.412,7.466 0.788,14.277 1.184,21.443 C -14.146,-1.073 -7.769,-0.59 0,0"
             style="fill:#f96167;fill-opacity:1;fill-rule:nonzero;stroke:none"
             id="path66" /></g><g
           id="g68"
           transform="translate(302.7661,475.3142)"><path
             d="M 0,0 C 8.41,-1.841 16.309,-3.57 25.272,-5.533 21.608,-13.432 18.239,-20.696 14.737,-28.245 7.995,-25.746 2,-23.525 -4.681,-21.05 -3.229,-14.521 -1.748,-7.861 0,0"
             style="fill:#f96167;fill-opacity:1;fill-rule:nonzero;stroke:none"
             id="path70" /></g><g
           id="g72"
           transform="translate(358.8501,509.2966)"><path
             d="m 0,0 c -7.096,-0.686 -12.884,-1.245 -19.022,-1.839 -1.412,8.762 -2.765,17.168 -4.135,25.677 9.36,4.913 10.965,4.586 15.672,-5.127 C -4.693,12.951 -2.689,6.81 0,0"
             style="fill:#f96167;fill-opacity:1;fill-rule:nonzero;stroke:none"
             id="path74" /></g><g
           id="g76"
           transform="translate(242.0386,455.5652)"><path
             d="m 0,0 c -3.377,-1.017 -6.561,-1.975 -11.221,-3.378 -3.991,8.792 -7.987,17.591 -12.596,27.742 7.552,0.746 13.426,1.328 19.578,1.937 C -2.804,17.396 -1.447,8.979 0,0"
             style="fill:#f96167;fill-opacity:1;fill-rule:nonzero;stroke:none"
             id="path78" /></g><g
           id="g80"
           transform="translate(255.3647,546.073)"><path
             d="m 0,0 c -4.214,-8.775 -7.899,-16.451 -11.802,-24.58 -5.512,2.151 -10.918,4.262 -16.933,6.609 4.392,9.147 10.238,16.554 18.148,21.595 C -8.615,4.88 -3.578,1.325 0,0"
             style="fill:#f96167;fill-opacity:1;fill-rule:nonzero;stroke:none"
             id="path82" /></g><g
           id="g84"
           transform="translate(322.6138,443.9392)"><path
             d="M 0,0 C 3.896,8.136 7.511,15.688 11.448,23.909 16.925,21.77 22.496,19.593 30.033,16.648 23.167,9.08 17.299,2.375 11.07,-3.977 10.219,-4.845 7.391,-4.396 5.795,-3.761 3.714,-2.934 1.949,-1.312 0,0"
             style="fill:#f96167;fill-opacity:1;fill-rule:nonzero;stroke:none"
             id="path86" /></g><g
           id="g88"
           transform="translate(300.3687,503.4119)"><path
             d="m 0,0 c -0.986,-6.815 -1.936,-13.379 -2.938,-20.304 -6.572,0.951 -12.946,1.873 -19.911,2.881 0.939,6.494 1.911,13.21 2.938,20.305 C -13.542,1.96 -7.174,1.038 0,0"
             style="fill:#f96167;fill-opacity:1;fill-rule:nonzero;stroke:none"
             id="path90" /></g><g
           id="g92"
           transform="translate(281.0107,513.3054)"><path
             d="M 0,0 C 1.558,6.802 3.008,13.131 4.559,19.902 10.218,19.083 15.714,18.288 21.787,17.409 21.394,10.824 20.999,4.19 20.571,-2.977 13.712,-1.984 7.374,-1.066 0,0"
             style="fill:#f96167;fill-opacity:1;fill-rule:nonzero;stroke:none"
             id="path94" /></g><g
           id="g96"
           transform="translate(292.0493,455.9539)"><path
             d="m 0,0 c -5.926,0.857 -11.24,1.626 -17.243,2.495 0.41,6.831 0.814,13.581 1.243,20.743 7.021,-1.015 13.345,-1.93 20.606,-2.981 C 3.065,13.481 1.607,7.069 0,0"
             style="fill:#f96167;fill-opacity:1;fill-rule:nonzero;stroke:none"
             id="path98" /></g><g
           id="g100"
           transform="translate(290.1548,564.6453)"><path
             d="m 0,0 c -3.237,-8.253 -6.045,-15.409 -9.158,-23.345 -5.208,1.873 -10.39,3.739 -16.272,5.855 C -18.79,-8.486 -11.166,-2.556 0,0"
             style="fill:#f96167;fill-opacity:1;fill-rule:nonzero;stroke:none"
             id="path102" /></g><g
           id="g104"
           transform="translate(327.0586,538.2449)"><path
             d="m 0,0 c -6.356,-0.438 -11.732,-0.81 -17.452,-1.204 -0.747,8.323 -1.45,16.153 -2.237,24.925 C -9.699,18.598 -4.435,10.509 0,0"
             style="fill:#f96167;fill-opacity:1;fill-rule:nonzero;stroke:none"
             id="path106" /></g><g
           id="g108"
           transform="translate(268.1104,452.7947)"><path
             d="m 0,0 c 0.783,-8.472 1.495,-16.16 2.204,-23.834 -8.048,2.326 -15.813,11.493 -18.938,22.848 C -11.095,-0.654 -5.599,-0.33 0,0"
             style="fill:#f96167;fill-opacity:1;fill-rule:nonzero;stroke:none"
             id="path110" /></g><g
           id="g112"
           transform="translate(313.2334,442.8445)"><path
             d="m 0,0 c -6.952,-9.111 -14.635,-15.018 -25.628,-17.521 3.092,7.952 5.925,15.235 9.072,23.324 C -11.31,3.964 -6.095,2.136 0,0"
             style="fill:#f96167;fill-opacity:1;fill-rule:nonzero;stroke:none"
             id="path114" /></g><g
           id="g116"
           transform="translate(303.1758,537.5876)"><path
             d="m 0,0 c -5.517,0.798 -10.227,1.479 -16.223,2.348 3.545,8.597 6.884,16.696 10.223,24.795 0.804,-0.121 1.607,-0.24 2.411,-0.359 C 0.15,18.437 -0.886,9.365 0,0"
             style="fill:#f96167;fill-opacity:1;fill-rule:nonzero;stroke:none"
             id="path118" /></g><g
           id="g120"
           transform="translate(277.1665,425.6384)"><path
             d="M 0,0 C -0.975,8.601 -1.95,17.2 -3.017,26.611 2.805,25.77 7.636,25.07 13.599,24.207 10.083,15.71 6.722,7.588 3.361,-0.534 2.241,-0.356 1.121,-0.178 0,0"
             style="fill:#f96167;fill-opacity:1;fill-rule:nonzero;stroke:none"
             id="path122" /></g><g
           id="g124"
           transform="translate(270.2368,561.99)"><path
             d="m 0,0 c -3.674,-3.723 -7.349,-7.445 -11.425,-11.576 -2.117,1.395 -4.265,2.811 -7.592,5.005 6.904,2.984 12.54,5.42 18.177,7.856 C -0.56,0.856 -0.28,0.429 0,0"
             style="fill:#f96167;fill-opacity:1;fill-rule:nonzero;stroke:none"
             id="path126" /></g><g
           id="g128"
           transform="translate(326.917,554.8708)"><path
             d="m 0,0 c 4.705,-3.891 9.409,-7.78 15.168,-12.542 -3.766,-1.149 -6.076,-1.854 -8.722,-2.66 -2.611,4.886 -5.123,9.584 -7.634,14.283 C -0.792,-0.613 -0.396,-0.307 0,0"
             style="fill:#f96167;fill-opacity:1;fill-rule:nonzero;stroke:none"
             id="path130" /></g><g
           id="g132"
           transform="translate(251.0303,435.0847)"><path
             d="m 0,0 c -4.775,3.836 -9.55,7.672 -15.593,12.525 3.843,1.16 6.278,1.895 8.843,2.668 2.667,-4.889 5.153,-9.446 7.639,-14.004 z"
             style="fill:#f96167;fill-opacity:1;fill-rule:nonzero;stroke:none"
             id="path134" /></g><g
           id="g136"
           transform="translate(318.853,439.491)"><path
             d="m 0,0 c 2.312,-1.483 4.344,-2.787 7.787,-4.996 -7.072,-2.95 -12.804,-5.341 -18.536,-7.732 -0.202,0.404 -0.404,0.807 -0.606,1.211 C -7.749,-7.859 -4.143,-4.202 0,0"
             style="fill:#f96167;fill-opacity:1;fill-rule:nonzero;stroke:none"
             id="path138" /></g><g
           id="g140"
           transform="translate(374.8862,567.321)"><path
             d="m 0,0 c 0,0 118.294,-78.003 32.939,-186.199 0,0 -6.011,-22.842 15.628,-12.023 0,0 104.832,118.74 -48.567,198.222"
             style="fill:#fbe67d;fill-opacity:1;fill-rule:nonzero;stroke:none"
             id="path142" /></g><g
           id="g144"
           transform="translate(429.6694,349.6599)"><path
             d="m 0,0 c 0,-5.198 -4.214,-9.412 -9.413,-9.412 -5.198,0 -9.413,4.214 -9.413,9.412 0,5.198 4.215,9.413 9.413,9.413 C -4.214,9.413 0,5.198 0,0"
             style="fill:#fbe67d;fill-opacity:1;fill-rule:nonzero;stroke:none"
             id="path146" /></g><g
           id="g148"
           transform="translate(434.3804,327.6248)"><path
             d="m 0,0 c 0,-3.599 -2.917,-6.515 -6.514,-6.515 -3.598,0 -6.515,2.916 -6.515,6.515 0,3.598 2.917,6.514 6.515,6.514 C -2.917,6.514 0,3.598 0,0"
             style="fill:#fbe67d;fill-opacity:1;fill-rule:nonzero;stroke:none"
             id="path150" /></g><g
           id="g152"
           transform="translate(607.0972,245.8152)"><path
             d="m 0,0 h 75.948 c 5.555,0 10.756,1.315 15.584,3.949 4.83,2.634 9.001,6.217 12.512,10.757 3.513,4.534 6.29,9.878 8.341,16.024 2.045,6.147 3.073,12.73 3.073,19.755 0,7.311 -1.173,14.048 -3.513,20.193 -2.345,6.146 -5.487,11.483 -9.438,16.023 -3.95,4.535 -8.492,8.048 -13.609,10.536 -5.123,2.486 -10.316,3.734 -15.585,3.734 L 0,100.971 Z M -60.582,-157.603 V 154.09 H 77.265 c 14.336,0 27.582,-3.006 39.73,-9.001 12.14,-6.002 22.609,-13.903 31.388,-23.705 8.78,-9.811 15.653,-20.928 20.634,-33.364 4.972,-12.445 7.462,-24.956 7.462,-37.535 0,-20.194 -5.048,-38.564 -15.146,-55.095 -10.097,-16.539 -23.781,-28.465 -41.045,-35.78 l 71.118,-117.213 H 123.36 L 59.705,-53.119 H 0 v -104.484 z"
             style="fill:#f96167;fill-opacity:1;fill-rule:nonzero;stroke:none"
             id="path154" /></g><path
           d="m 822.206,399.905 h 60.582 V 88.213 h -60.582 z"
           style="fill:#fbe67c;fill-opacity:1;fill-rule:nonzero;stroke:none"
           id="path156" /><g
           id="g158"
           transform="translate(1164.6265,346.7859)"><path
             d="m 0,0 h -99.655 v -258.573 h -60.144 V 0 h -99.652 V 53.119 H 0 Z"
             style="fill:#f96167;fill-opacity:1;fill-rule:nonzero;stroke:none"
             id="path160" /></g><g
           id="g162"
           transform="translate(1314.7642,208.4988)"><path
             d="M 0,0 -43.023,122.481 -87.802,0 Z m -69.801,191.406 h 53.558 L 102.286,-120.286 H 39.947 L 10.975,-42.584 H -97.897 l -28.536,-77.702 h -62.339 z"
             style="fill:#f96167;fill-opacity:1;fill-rule:nonzero;stroke:none"
             id="path164" /></g></g></g></g></svg>
